<svg width="121" height="28" viewBox="0 0 121 28" fill="none" xmlns="http://www.w3.org/2000/svg">
<mask id="path-1-outside-1_1_348" maskUnits="userSpaceOnUse" x="0" y="0" width="121" height="28" fill="black">
<rect fill="white" width="121" height="28"/>
<path d="M10.784 25.384C9.26933 25.384 7.872 25.1067 6.592 24.552C5.33333 23.976 4.29867 23.1653 3.488 22.12L6.368 18.664C6.98667 19.4747 7.63733 20.0933 8.32 20.52C9.00267 20.9253 9.73867 21.128 10.528 21.128C12.64 21.128 13.696 19.8907 13.696 17.416V6.76H5.824V2.6H18.848V17.128C18.848 19.9013 18.1653 21.9707 16.8 23.336C15.4347 24.7013 13.4293 25.384 10.784 25.384ZM34.7845 25.384C33.0138 25.384 31.3818 25.1067 29.8885 24.552C28.4165 23.976 27.1258 23.1653 26.0165 22.12C24.9285 21.0747 24.0752 19.848 23.4565 18.44C22.8592 17.032 22.5605 15.4853 22.5605 13.8C22.5605 12.1147 22.8592 10.568 23.4565 9.16C24.0752 7.752 24.9392 6.52533 26.0485 5.48C27.1578 4.43467 28.4592 3.63467 29.9525 3.08C31.4458 2.504 33.0885 2.216 34.8805 2.216C36.8645 2.216 38.6458 2.54667 40.2245 3.208C41.8245 3.86933 43.1685 4.82933 44.2565 6.088L40.9285 9.16C40.1178 8.30667 39.2325 7.67733 38.2725 7.272C37.3125 6.84533 36.2672 6.632 35.1365 6.632C34.0485 6.632 33.0565 6.80267 32.1605 7.144C31.2645 7.48533 30.4858 7.976 29.8245 8.616C29.1845 9.256 28.6832 10.0133 28.3205 10.888C27.9792 11.7627 27.8085 12.7333 27.8085 13.8C27.8085 14.8453 27.9792 15.8053 28.3205 16.68C28.6832 17.5547 29.1845 18.3227 29.8245 18.984C30.4858 19.624 31.2538 20.1147 32.1285 20.456C33.0245 20.7973 34.0058 20.968 35.0725 20.968C36.0965 20.968 37.0885 20.808 38.0485 20.488C39.0298 20.1467 39.9792 19.5813 40.8965 18.792L43.8405 22.536C42.6245 23.4533 41.2058 24.1573 39.5845 24.648C37.9845 25.1387 36.3845 25.384 34.7845 25.384ZM39.1045 21.864V13.448H43.8405V22.536L39.1045 21.864ZM58.864 25V21.64L58.544 20.904V14.888C58.544 13.8213 58.2133 12.9893 57.552 12.392C56.912 11.7947 55.92 11.496 54.576 11.496C53.6587 11.496 52.752 11.6453 51.856 11.944C50.9813 12.2213 50.2347 12.6053 49.616 13.096L47.824 9.608C48.7627 8.94667 49.8933 8.43467 51.216 8.072C52.5387 7.70933 53.8827 7.528 55.248 7.528C57.872 7.528 59.9093 8.14667 61.36 9.384C62.8107 10.6213 63.536 12.552 63.536 15.176V25H58.864ZM53.616 25.256C52.272 25.256 51.12 25.032 50.16 24.584C49.2 24.1147 48.464 23.4853 47.952 22.696C47.44 21.9067 47.184 21.0213 47.184 20.04C47.184 19.016 47.4293 18.12 47.92 17.352C48.432 16.584 49.232 15.9867 50.32 15.56C51.408 15.112 52.8267 14.888 54.576 14.888H59.152V17.8H55.12C53.9467 17.8 53.136 17.992 52.688 18.376C52.2613 18.76 52.048 19.24 52.048 19.816C52.048 20.456 52.2933 20.968 52.784 21.352C53.296 21.7147 53.9893 21.896 54.864 21.896C55.696 21.896 56.4427 21.704 57.104 21.32C57.7653 20.9147 58.2453 20.328 58.544 19.56L59.312 21.864C58.9493 22.9733 58.288 23.816 57.328 24.392C56.368 24.968 55.1307 25.256 53.616 25.256ZM90.102 7.528C91.4673 7.528 92.6727 7.80533 93.718 8.36C94.7847 8.89333 95.6167 9.72533 96.214 10.856C96.8327 11.9653 97.142 13.3947 97.142 15.144V25H92.15V15.912C92.15 14.5253 91.862 13.5013 91.286 12.84C90.71 12.1787 89.8993 11.848 88.854 11.848C88.1287 11.848 87.478 12.0187 86.902 12.36C86.326 12.68 85.878 13.1707 85.558 13.832C85.238 14.4933 85.078 15.336 85.078 16.36V25H80.086V15.912C80.086 14.5253 79.798 13.5013 79.222 12.84C78.6673 12.1787 77.8673 11.848 76.822 11.848C76.0967 11.848 75.446 12.0187 74.87 12.36C74.294 12.68 73.846 13.1707 73.526 13.832C73.206 14.4933 73.046 15.336 73.046 16.36V25H68.054V7.784H72.822V12.488L71.926 11.112C72.5233 9.93867 73.366 9.05333 74.454 8.456C75.5633 7.83733 76.822 7.528 78.23 7.528C79.8087 7.528 81.1847 7.93333 82.358 8.744C83.5527 9.53333 84.342 10.7493 84.726 12.392L82.966 11.912C83.542 10.568 84.4593 9.50133 85.718 8.712C86.998 7.92267 88.4593 7.528 90.102 7.528ZM110.286 25.256C108.323 25.256 106.595 24.872 105.102 24.104C103.63 23.336 102.488 22.2907 101.678 20.968C100.867 19.624 100.462 18.0987 100.462 16.392C100.462 14.664 100.856 13.1387 101.646 11.816C102.456 10.472 103.555 9.42667 104.942 8.68C106.328 7.912 107.896 7.528 109.646 7.528C111.331 7.528 112.846 7.89067 114.19 8.616C115.555 9.32 116.632 10.344 117.422 11.688C118.211 13.0107 118.606 14.6 118.606 16.456C118.606 16.648 118.595 16.872 118.574 17.128C118.552 17.3627 118.531 17.5867 118.51 17.8H104.526V14.888H115.885L113.966 15.752C113.966 14.856 113.784 14.0773 113.422 13.416C113.059 12.7547 112.558 12.2427 111.918 11.88C111.278 11.496 110.531 11.304 109.678 11.304C108.824 11.304 108.067 11.496 107.406 11.88C106.766 12.2427 106.264 12.7653 105.902 13.448C105.539 14.1093 105.358 14.8987 105.358 15.816V16.584C105.358 17.5227 105.56 18.3547 105.966 19.08C106.392 19.784 106.979 20.328 107.726 20.712C108.494 21.0747 109.39 21.256 110.414 21.256C111.331 21.256 112.131 21.1173 112.814 20.84C113.518 20.5627 114.158 20.1467 114.734 19.592L117.39 22.472C116.6 23.368 115.608 24.0613 114.414 24.552C113.219 25.0213 111.843 25.256 110.286 25.256Z"/>
</mask>
<path d="M10.784 25.384C9.26933 25.384 7.872 25.1067 6.592 24.552C5.33333 23.976 4.29867 23.1653 3.488 22.12L6.368 18.664C6.98667 19.4747 7.63733 20.0933 8.32 20.52C9.00267 20.9253 9.73867 21.128 10.528 21.128C12.64 21.128 13.696 19.8907 13.696 17.416V6.76H5.824V2.6H18.848V17.128C18.848 19.9013 18.1653 21.9707 16.8 23.336C15.4347 24.7013 13.4293 25.384 10.784 25.384ZM34.7845 25.384C33.0138 25.384 31.3818 25.1067 29.8885 24.552C28.4165 23.976 27.1258 23.1653 26.0165 22.12C24.9285 21.0747 24.0752 19.848 23.4565 18.44C22.8592 17.032 22.5605 15.4853 22.5605 13.8C22.5605 12.1147 22.8592 10.568 23.4565 9.16C24.0752 7.752 24.9392 6.52533 26.0485 5.48C27.1578 4.43467 28.4592 3.63467 29.9525 3.08C31.4458 2.504 33.0885 2.216 34.8805 2.216C36.8645 2.216 38.6458 2.54667 40.2245 3.208C41.8245 3.86933 43.1685 4.82933 44.2565 6.088L40.9285 9.16C40.1178 8.30667 39.2325 7.67733 38.2725 7.272C37.3125 6.84533 36.2672 6.632 35.1365 6.632C34.0485 6.632 33.0565 6.80267 32.1605 7.144C31.2645 7.48533 30.4858 7.976 29.8245 8.616C29.1845 9.256 28.6832 10.0133 28.3205 10.888C27.9792 11.7627 27.8085 12.7333 27.8085 13.8C27.8085 14.8453 27.9792 15.8053 28.3205 16.68C28.6832 17.5547 29.1845 18.3227 29.8245 18.984C30.4858 19.624 31.2538 20.1147 32.1285 20.456C33.0245 20.7973 34.0058 20.968 35.0725 20.968C36.0965 20.968 37.0885 20.808 38.0485 20.488C39.0298 20.1467 39.9792 19.5813 40.8965 18.792L43.8405 22.536C42.6245 23.4533 41.2058 24.1573 39.5845 24.648C37.9845 25.1387 36.3845 25.384 34.7845 25.384ZM39.1045 21.864V13.448H43.8405V22.536L39.1045 21.864ZM58.864 25V21.64L58.544 20.904V14.888C58.544 13.8213 58.2133 12.9893 57.552 12.392C56.912 11.7947 55.92 11.496 54.576 11.496C53.6587 11.496 52.752 11.6453 51.856 11.944C50.9813 12.2213 50.2347 12.6053 49.616 13.096L47.824 9.608C48.7627 8.94667 49.8933 8.43467 51.216 8.072C52.5387 7.70933 53.8827 7.528 55.248 7.528C57.872 7.528 59.9093 8.14667 61.36 9.384C62.8107 10.6213 63.536 12.552 63.536 15.176V25H58.864ZM53.616 25.256C52.272 25.256 51.12 25.032 50.16 24.584C49.2 24.1147 48.464 23.4853 47.952 22.696C47.44 21.9067 47.184 21.0213 47.184 20.04C47.184 19.016 47.4293 18.12 47.92 17.352C48.432 16.584 49.232 15.9867 50.32 15.56C51.408 15.112 52.8267 14.888 54.576 14.888H59.152V17.8H55.12C53.9467 17.8 53.136 17.992 52.688 18.376C52.2613 18.76 52.048 19.24 52.048 19.816C52.048 20.456 52.2933 20.968 52.784 21.352C53.296 21.7147 53.9893 21.896 54.864 21.896C55.696 21.896 56.4427 21.704 57.104 21.32C57.7653 20.9147 58.2453 20.328 58.544 19.56L59.312 21.864C58.9493 22.9733 58.288 23.816 57.328 24.392C56.368 24.968 55.1307 25.256 53.616 25.256ZM90.102 7.528C91.4673 7.528 92.6727 7.80533 93.718 8.36C94.7847 8.89333 95.6167 9.72533 96.214 10.856C96.8327 11.9653 97.142 13.3947 97.142 15.144V25H92.15V15.912C92.15 14.5253 91.862 13.5013 91.286 12.84C90.71 12.1787 89.8993 11.848 88.854 11.848C88.1287 11.848 87.478 12.0187 86.902 12.36C86.326 12.68 85.878 13.1707 85.558 13.832C85.238 14.4933 85.078 15.336 85.078 16.36V25H80.086V15.912C80.086 14.5253 79.798 13.5013 79.222 12.84C78.6673 12.1787 77.8673 11.848 76.822 11.848C76.0967 11.848 75.446 12.0187 74.87 12.36C74.294 12.68 73.846 13.1707 73.526 13.832C73.206 14.4933 73.046 15.336 73.046 16.36V25H68.054V7.784H72.822V12.488L71.926 11.112C72.5233 9.93867 73.366 9.05333 74.454 8.456C75.5633 7.83733 76.822 7.528 78.23 7.528C79.8087 7.528 81.1847 7.93333 82.358 8.744C83.5527 9.53333 84.342 10.7493 84.726 12.392L82.966 11.912C83.542 10.568 84.4593 9.50133 85.718 8.712C86.998 7.92267 88.4593 7.528 90.102 7.528ZM110.286 25.256C108.323 25.256 106.595 24.872 105.102 24.104C103.63 23.336 102.488 22.2907 101.678 20.968C100.867 19.624 100.462 18.0987 100.462 16.392C100.462 14.664 100.856 13.1387 101.646 11.816C102.456 10.472 103.555 9.42667 104.942 8.68C106.328 7.912 107.896 7.528 109.646 7.528C111.331 7.528 112.846 7.89067 114.19 8.616C115.555 9.32 116.632 10.344 117.422 11.688C118.211 13.0107 118.606 14.6 118.606 16.456C118.606 16.648 118.595 16.872 118.574 17.128C118.552 17.3627 118.531 17.5867 118.51 17.8H104.526V14.888H115.885L113.966 15.752C113.966 14.856 113.784 14.0773 113.422 13.416C113.059 12.7547 112.558 12.2427 111.918 11.88C111.278 11.496 110.531 11.304 109.678 11.304C108.824 11.304 108.067 11.496 107.406 11.88C106.766 12.2427 106.264 12.7653 105.902 13.448C105.539 14.1093 105.358 14.8987 105.358 15.816V16.584C105.358 17.5227 105.56 18.3547 105.966 19.08C106.392 19.784 106.979 20.328 107.726 20.712C108.494 21.0747 109.39 21.256 110.414 21.256C111.331 21.256 112.131 21.1173 112.814 20.84C113.518 20.5627 114.158 20.1467 114.734 19.592L117.39 22.472C116.6 23.368 115.608 24.0613 114.414 24.552C113.219 25.0213 111.843 25.256 110.286 25.256Z" fill="#D52941"/>
<path d="M6.592 24.552L5.75975 26.3706L5.77819 26.3791L5.79679 26.3871L6.592 24.552ZM3.488 22.12L1.95156 20.8396L0.922123 22.075L1.90756 23.3456L3.488 22.12ZM6.368 18.664L7.9579 17.4507L6.43674 15.4574L4.83156 17.3836L6.368 18.664ZM8.32 20.52L7.26 22.216L7.27933 22.2281L7.29892 22.2397L8.32 20.52ZM13.696 6.76H15.696V4.76H13.696V6.76ZM5.824 6.76H3.824V8.76H5.824V6.76ZM5.824 2.6V0.599998H3.824V2.6H5.824ZM18.848 2.6H20.848V0.599998H18.848V2.6ZM16.8 23.336L15.3858 21.9218H15.3858L16.8 23.336ZM10.784 25.384V23.384C9.51919 23.384 8.39534 23.1537 7.38721 22.7169L6.592 24.552L5.79679 26.3871C7.34866 27.0596 9.01947 27.384 10.784 27.384V25.384ZM6.592 24.552L7.42425 22.7334C6.44512 22.2853 5.67196 21.6726 5.06844 20.8944L3.488 22.12L1.90756 23.3456C2.92537 24.6581 4.22155 25.6667 5.75975 26.3706L6.592 24.552ZM3.488 22.12L5.02444 23.4004L7.90444 19.9444L6.368 18.664L4.83156 17.3836L1.95156 20.8396L3.488 22.12ZM6.368 18.664L4.7781 19.8773C5.50558 20.8306 6.32672 21.6327 7.26 22.216L8.32 20.52L9.38 18.824C8.94795 18.554 8.46775 18.1187 7.9579 17.4507L6.368 18.664ZM8.32 20.52L7.29892 22.2397C8.28869 22.8274 9.37711 23.128 10.528 23.128V21.128V19.128C10.1002 19.128 9.71665 19.0233 9.34108 18.8003L8.32 20.52ZM10.528 21.128V23.128C11.9825 23.128 13.4108 22.6871 14.4253 21.4983C15.388 20.3703 15.696 18.8909 15.696 17.416H13.696H11.696C11.696 18.4157 11.476 18.7924 11.3827 18.9017C11.3412 18.9503 11.1855 19.128 10.528 19.128V21.128ZM13.696 17.416H15.696V6.76H13.696H11.696V17.416H13.696ZM13.696 6.76V4.76H5.824V6.76V8.76H13.696V6.76ZM5.824 6.76H7.824V2.6H5.824H3.824V6.76H5.824ZM5.824 2.6V4.6H18.848V2.6V0.599998H5.824V2.6ZM18.848 2.6H16.848V17.128H18.848H20.848V2.6H18.848ZM18.848 17.128H16.848C16.848 19.6035 16.2386 21.069 15.3858 21.9218L16.8 23.336L18.2142 24.7502C20.0921 22.8723 20.848 20.1991 20.848 17.128H18.848ZM16.8 23.336L15.3858 21.9218C14.517 22.7906 13.0997 23.384 10.784 23.384V25.384V27.384C13.759 27.384 16.3524 26.6121 18.2142 24.7502L16.8 23.336ZM29.8885 24.552L29.1597 26.4145L29.1759 26.4208L29.1921 26.4268L29.8885 24.552ZM26.0165 22.12L24.6308 23.5622L24.6378 23.5689L24.6449 23.5756L26.0165 22.12ZM23.4565 18.44L21.6153 19.2211L21.6203 19.2329L21.6255 19.2445L23.4565 18.44ZM23.4565 9.16L21.6255 8.35545L21.6203 8.36714L21.6153 8.3789L23.4565 9.16ZM26.0485 5.48L27.4201 6.93558L27.4201 6.93558L26.0485 5.48ZM29.9525 3.08L30.6489 4.95485L30.6606 4.9505L30.6722 4.946L29.9525 3.08ZM40.2245 3.208L39.4517 5.0527L39.4605 5.05633L40.2245 3.208ZM44.2565 6.088L45.6131 7.55761L47.0355 6.24459L45.7696 4.78009L44.2565 6.088ZM40.9285 9.16L39.4785 10.5375L40.8364 11.9668L42.2851 10.6296L40.9285 9.16ZM38.2725 7.272L37.4602 9.09962L37.4773 9.10722L37.4946 9.1145L38.2725 7.272ZM29.8245 8.616L28.4337 7.17879L28.4219 7.1902L28.4103 7.20179L29.8245 8.616ZM28.3205 10.888L26.473 10.122L26.465 10.1414L26.4573 10.1609L28.3205 10.888ZM28.3205 16.68L26.4573 17.4071L26.465 17.4266L26.473 17.446L28.3205 16.68ZM29.8245 18.984L28.3873 20.3748L28.4101 20.3984L28.4337 20.4212L29.8245 18.984ZM32.1285 20.456L31.4014 22.3192L31.409 22.3221L31.4165 22.325L32.1285 20.456ZM38.0485 20.488L38.681 22.3854L38.6933 22.3813L38.7055 22.377L38.0485 20.488ZM40.8965 18.792L42.4687 17.5558L41.1766 15.9125L39.592 17.276L40.8965 18.792ZM43.8405 22.536L45.045 24.1326L46.6739 22.9038L45.4127 21.2998L43.8405 22.536ZM39.5845 24.648L39.0052 22.7337L38.9981 22.7359L39.5845 24.648ZM39.1045 21.864H37.1045V23.6002L38.8235 23.8442L39.1045 21.864ZM39.1045 13.448V11.448H37.1045V13.448H39.1045ZM43.8405 13.448H45.8405V11.448H43.8405V13.448ZM43.8405 22.536L43.5595 24.5162L45.8405 24.8398V22.536H43.8405ZM34.7845 25.384V23.384C33.2252 23.384 31.8319 23.1403 30.5849 22.6771L29.8885 24.552L29.1921 26.4268C30.9318 27.073 32.8025 27.384 34.7845 27.384V25.384ZM29.8885 24.552L30.6173 22.6895C29.3746 22.2033 28.3043 21.5277 27.3881 20.6644L26.0165 22.12L24.6449 23.5756C25.9474 24.8029 27.4584 25.7487 29.1597 26.4145L29.8885 24.552ZM26.0165 22.12L27.4022 20.6778C26.5066 19.8174 25.803 18.8085 25.2875 17.6355L23.4565 18.44L21.6255 19.2445C22.3473 20.8875 23.3504 22.332 24.6308 23.5622L26.0165 22.12ZM23.4565 18.44L25.2977 17.6589C24.8154 16.5221 24.5605 15.2444 24.5605 13.8H22.5605H20.5605C20.5605 15.7262 20.903 17.5419 21.6153 19.2211L23.4565 18.44ZM22.5605 13.8H24.5605C24.5605 12.3556 24.8154 11.0779 25.2977 9.9411L23.4565 9.16L21.6153 8.3789C20.903 10.0581 20.5605 11.8738 20.5605 13.8H22.5605ZM23.4565 9.16L25.2875 9.96455C25.7993 8.79991 26.5078 7.79522 27.4201 6.93558L26.0485 5.48L24.6769 4.02442C23.3705 5.25544 22.3511 6.70409 21.6255 8.35545L23.4565 9.16ZM26.0485 5.48L27.4201 6.93558C28.3259 6.08202 29.3949 5.42062 30.6489 4.95485L29.9525 3.08L29.2561 1.20515C27.5235 1.84871 25.9897 2.78731 24.6769 4.02442L26.0485 5.48ZM29.9525 3.08L30.6722 4.946C31.9101 4.46854 33.3053 4.216 34.8805 4.216V2.216V0.216C32.8717 0.216 30.9816 0.539461 29.2328 1.21399L29.9525 3.08ZM34.8805 2.216V4.216C36.6409 4.216 38.1536 4.50886 39.4517 5.05267L40.2245 3.208L40.9973 1.36332C39.1381 0.58447 37.0881 0.216 34.8805 0.216V2.216ZM40.2245 3.208L39.4605 5.05633C40.7842 5.60344 41.8679 6.38306 42.7434 7.39591L44.2565 6.088L45.7696 4.78009C44.4691 3.27561 42.8648 2.13523 40.9885 1.35966L40.2245 3.208ZM44.2565 6.088L42.8999 4.61839L39.5719 7.69039L40.9285 9.16L42.2851 10.6296L45.6131 7.55761L44.2565 6.088ZM40.9285 9.16L42.3785 7.7825C41.4027 6.75539 40.295 5.95496 39.0504 5.4295L38.2725 7.272L37.4946 9.1145C38.17 9.3997 38.8329 9.85794 39.4785 10.5375L40.9285 9.16ZM38.2725 7.272L39.0848 5.44438C37.85 4.89559 36.5254 4.632 35.1365 4.632V6.632V8.632C36.009 8.632 36.775 8.79508 37.4602 9.09962L38.2725 7.272ZM35.1365 6.632V4.632C33.8377 4.632 32.6004 4.83621 31.4485 5.27502L32.1605 7.144L32.8725 9.01297C33.5126 8.76912 34.2593 8.632 35.1365 8.632V6.632ZM32.1605 7.144L31.4485 5.27502C30.3101 5.70869 29.2978 6.34249 28.4337 7.17879L29.8245 8.616L31.2153 10.0532C31.6738 9.60951 32.2189 9.26197 32.8725 9.01297L32.1605 7.144ZM29.8245 8.616L28.4103 7.20179C27.5762 8.03585 26.9315 9.0163 26.473 10.122L28.3205 10.888L30.168 11.654C30.4349 11.0104 30.7928 10.4761 31.2387 10.0302L29.8245 8.616ZM28.3205 10.888L26.4573 10.1609C26.0141 11.2967 25.8085 12.5181 25.8085 13.8H27.8085H29.8085C29.8085 12.9485 29.9442 12.2287 30.1837 11.6151L28.3205 10.888ZM27.8085 13.8H25.8085C25.8085 15.066 26.0159 16.2758 26.4573 17.4071L28.3205 16.68L30.1837 15.9529C29.9424 15.3348 29.8085 14.6247 29.8085 13.8H27.8085ZM28.3205 16.68L26.473 17.446C26.9291 18.5461 27.5674 19.5276 28.3873 20.3748L29.8245 18.984L31.2617 17.5932C30.8016 17.1177 30.4372 16.5633 30.168 15.914L28.3205 16.68ZM29.8245 18.984L28.4337 20.4212C29.2897 21.2496 30.2845 21.8833 31.4014 22.3192L32.1285 20.456L32.8556 18.5928C32.2231 18.346 31.682 17.9984 31.2153 17.5468L29.8245 18.984ZM32.1285 20.456L31.4165 22.325C32.5641 22.7621 33.7898 22.968 35.0725 22.968V20.968V18.968C34.2219 18.968 33.4849 18.8325 32.8405 18.587L32.1285 20.456ZM35.0725 20.968V22.968C36.3089 22.968 37.5146 22.7742 38.681 22.3854L38.0485 20.488L37.416 18.5906C36.6624 18.8418 35.8841 18.968 35.0725 18.968V20.968ZM38.0485 20.488L38.7055 22.377C39.9599 21.9407 41.1241 21.2347 42.201 20.308L40.8965 18.792L39.592 17.276C38.8342 17.928 38.0998 18.3526 37.3915 18.599L38.0485 20.488ZM40.8965 18.792L39.3243 20.0282L42.2683 23.7722L43.8405 22.536L45.4127 21.2998L42.4687 17.5558L40.8965 18.792ZM43.8405 22.536L42.636 20.9394C41.628 21.6998 40.4262 22.3037 39.0052 22.7337L39.5845 24.648L40.1638 26.5623C41.9855 26.011 43.621 25.2068 45.045 24.1326L43.8405 22.536ZM39.5845 24.648L38.9981 22.7359C37.5793 23.171 36.1768 23.384 34.7845 23.384V25.384V27.384C36.5922 27.384 38.3897 27.1064 40.1709 26.5601L39.5845 24.648ZM39.1045 21.864H41.1045V13.448H39.1045H37.1045V21.864H39.1045ZM39.1045 13.448V15.448H43.8405V13.448V11.448H39.1045V13.448ZM43.8405 13.448H41.8405V22.536H43.8405H45.8405V13.448H43.8405ZM43.8405 22.536L44.1215 20.5558L39.3855 19.8838L39.1045 21.864L38.8235 23.8442L43.5595 24.5162L43.8405 22.536ZM58.864 25H56.864V27H58.864V25ZM58.864 21.64H60.864V21.224L60.6981 20.8425L58.864 21.64ZM58.544 20.904H56.544V21.32L56.7099 21.7015L58.544 20.904ZM57.552 12.392L56.1874 13.8541L56.1993 13.8653L56.2114 13.8762L57.552 12.392ZM51.856 11.944L52.4605 13.8505L52.4745 13.846L52.4885 13.8414L51.856 11.944ZM49.616 13.096L47.837 14.01L48.9502 16.1767L50.8588 14.663L49.616 13.096ZM47.824 9.608L46.6721 7.97303L45.2502 8.97483L46.045 10.522L47.824 9.608ZM51.216 8.072L50.6871 6.14319L51.216 8.072ZM61.36 9.384L62.6579 7.86233V7.86233L61.36 9.384ZM63.536 25V27H65.536V25H63.536ZM50.16 24.584L49.2816 26.3808L49.2978 26.3887L49.3142 26.3964L50.16 24.584ZM47.952 22.696L49.6299 21.6076L47.952 22.696ZM47.92 17.352L46.2559 16.2426L46.2451 16.2588L46.2346 16.2752L47.92 17.352ZM50.32 15.56L51.0502 17.4219L51.0659 17.4158L51.0815 17.4094L50.32 15.56ZM59.152 14.888H61.152V12.888H59.152V14.888ZM59.152 17.8V19.8H61.152V17.8H59.152ZM52.688 18.376L51.3864 16.8575L51.368 16.8732L51.3501 16.8894L52.688 18.376ZM52.784 21.352L51.5514 22.927L51.589 22.9564L51.628 22.984L52.784 21.352ZM57.104 21.32L58.1083 23.0496L58.1288 23.0376L58.1491 23.0252L57.104 21.32ZM58.544 19.56L60.4414 18.9275L58.6888 13.6697L56.68 18.8351L58.544 19.56ZM59.312 21.864L61.213 22.4855L61.4182 21.8579L61.2094 21.2315L59.312 21.864ZM57.328 24.392L56.299 22.677L57.328 24.392ZM58.864 25H60.864V21.64H58.864H56.864V25H58.864ZM58.864 21.64L60.6981 20.8425L60.3781 20.1065L58.544 20.904L56.7099 21.7015L57.0299 22.4375L58.864 21.64ZM58.544 20.904H60.544V14.888H58.544H56.544V20.904H58.544ZM58.544 14.888H60.544C60.544 13.3769 60.0561 11.9587 58.8926 10.9078L57.552 12.392L56.2114 13.8762C56.3706 14.02 56.544 14.2657 56.544 14.888H58.544ZM57.552 12.392L58.9166 10.9299C57.7508 9.84181 56.1638 9.496 54.576 9.496V11.496V13.496C55.6762 13.496 56.0732 13.7475 56.1874 13.8541L57.552 12.392ZM54.576 11.496V9.496C53.4374 9.496 52.3174 9.68202 51.2235 10.0466L51.856 11.944L52.4885 13.8414C53.1866 13.6086 53.88 13.496 54.576 13.496V11.496ZM51.856 11.944L51.2515 10.0375C50.1822 10.3766 49.2104 10.865 48.3732 11.529L49.616 13.096L50.8588 14.663C51.2589 14.3457 51.7805 14.0661 52.4605 13.8505L51.856 11.944ZM49.616 13.096L51.395 12.182L49.603 8.69404L47.824 9.608L46.045 10.522L47.837 14.01L49.616 13.096ZM47.824 9.608L48.9759 11.243C49.6927 10.738 50.6031 10.3139 51.7449 10.0008L51.216 8.072L50.6871 6.14319C49.1836 6.55546 47.8326 7.15538 46.6721 7.97303L47.824 9.608ZM51.216 8.072L51.7449 10.0008C52.896 9.68517 54.0622 9.528 55.248 9.528V7.528V5.528C53.7032 5.528 52.1813 5.73349 50.6871 6.14319L51.216 8.072ZM55.248 7.528V9.528C57.5749 9.528 59.0894 10.076 60.0621 10.9057L61.36 9.384L62.6579 7.86233C60.7293 6.21733 58.1691 5.528 55.248 5.528V7.528ZM61.36 9.384L60.0621 10.9057C60.9173 11.6351 61.536 12.9067 61.536 15.176H63.536H65.536C65.536 12.1973 64.704 9.60753 62.6579 7.86233L61.36 9.384ZM63.536 15.176H61.536V25H63.536H65.536V15.176H63.536ZM63.536 25V23H58.864V25V27H63.536V25ZM53.616 25.256V23.256C52.4883 23.256 51.6398 23.0675 51.0058 22.7716L50.16 24.584L49.3142 26.3964C50.6002 26.9965 52.0557 27.256 53.616 27.256V25.256ZM50.16 24.584L51.0384 22.7872C50.359 22.4551 49.9189 22.0531 49.6299 21.6076L47.952 22.696L46.2741 23.7844C47.0091 24.9176 48.041 25.7742 49.2816 26.3808L50.16 24.584ZM47.952 22.696L49.6299 21.6076C49.3375 21.1568 49.184 20.6526 49.184 20.04H47.184H45.184C45.184 21.3901 45.5425 22.6566 46.2741 23.7844L47.952 22.696ZM47.184 20.04H49.184C49.184 19.349 49.3449 18.8366 49.6054 18.4288L47.92 17.352L46.2346 16.2752C45.5138 17.4034 45.184 18.683 45.184 20.04H47.184ZM47.92 17.352L49.5841 18.4614C49.8153 18.1146 50.2415 17.7391 51.0502 17.4219L50.32 15.56L49.5898 13.6981C48.2225 14.2343 47.0487 15.0534 46.2559 16.2426L47.92 17.352ZM50.32 15.56L51.0815 17.4094C51.8402 17.097 52.9724 16.888 54.576 16.888V14.888V12.888C52.6809 12.888 50.9758 13.127 49.5585 13.7106L50.32 15.56ZM54.576 14.888V16.888H59.152V14.888V12.888H54.576V14.888ZM59.152 14.888H57.152V17.8H59.152H61.152V14.888H59.152ZM59.152 17.8V15.8H55.12V17.8V19.8H59.152V17.8ZM55.12 17.8V15.8C53.8715 15.8 52.4159 15.9751 51.3864 16.8575L52.688 18.376L53.9896 19.8945C53.8926 19.9777 53.8779 19.9411 54.0929 19.8902C54.2999 19.8411 54.6309 19.8 55.12 19.8V17.8ZM52.688 18.376L51.3501 16.8894C50.5003 17.6542 50.048 18.6753 50.048 19.816H52.048H54.048C54.048 19.7959 54.0498 19.791 54.0484 19.798C54.0469 19.8056 54.0431 19.8194 54.0356 19.8363C54.0281 19.8531 54.0202 19.8656 54.0151 19.8725C54.0103 19.8789 54.012 19.8751 54.0259 19.8626L52.688 18.376ZM52.048 19.816H50.048C50.048 21.0516 50.5612 22.1521 51.5514 22.927L52.784 21.352L54.0166 19.777C54.0006 19.7644 54 19.7615 54.0075 19.7705C54.0153 19.7801 54.026 19.7957 54.0356 19.8158C54.0452 19.8357 54.0491 19.8505 54.0501 19.8554C54.051 19.8596 54.048 19.848 54.048 19.816H52.048ZM52.784 21.352L51.628 22.984C52.5876 23.6638 53.7336 23.896 54.864 23.896V21.896V19.896C54.245 19.896 54.0044 19.7656 53.94 19.72L52.784 21.352ZM54.864 21.896V23.896C56.0168 23.896 57.1154 23.6261 58.1083 23.0496L57.104 21.32L56.0997 19.5904C55.77 19.7819 55.3752 19.896 54.864 19.896V21.896ZM57.104 21.32L58.1491 23.0252C59.2073 22.3766 59.9614 21.4333 60.408 20.2849L58.544 19.56L56.68 18.8351C56.5292 19.2227 56.3234 19.4527 56.0589 19.6148L57.104 21.32ZM58.544 19.56L56.6466 20.1925L57.4146 22.4965L59.312 21.864L61.2094 21.2315L60.4414 18.9275L58.544 19.56ZM59.312 21.864L57.411 21.2425C57.191 21.9155 56.8275 22.3599 56.299 22.677L57.328 24.392L58.357 26.107C59.7485 25.2721 60.7077 24.0312 61.213 22.4855L59.312 21.864ZM57.328 24.392L56.299 22.677C55.741 23.0118 54.8917 23.256 53.616 23.256V25.256V27.256C55.3697 27.256 56.995 26.9242 58.357 26.107L57.328 24.392ZM93.718 8.36L92.7806 10.1267L92.8019 10.138L92.8236 10.1489L93.718 8.36ZM96.214 10.856L94.4456 11.7902L94.4562 11.8103L94.4673 11.8301L96.214 10.856ZM97.142 25V27H99.142V25H97.142ZM92.15 25H90.15V27H92.15V25ZM91.286 12.84L92.7942 11.5264L91.286 12.84ZM86.902 12.36L87.8733 14.1083L87.8976 14.0948L87.9216 14.0806L86.902 12.36ZM85.558 13.832L87.3583 14.7031L85.558 13.832ZM85.078 25V27H87.078V25H85.078ZM80.086 25H78.086V27H80.086V25ZM79.222 12.84L77.6896 14.1252L77.7016 14.1395L77.7138 14.1536L79.222 12.84ZM74.87 12.36L75.8413 14.1083L75.8656 14.0948L75.8896 14.0806L74.87 12.36ZM73.526 13.832L75.3263 14.7031L73.526 13.832ZM73.046 25V27H75.046V25H73.046ZM68.054 25H66.054V27H68.054V25ZM68.054 7.784V5.784H66.054V7.784H68.054ZM72.822 7.784H74.822V5.784H72.822V7.784ZM72.822 12.488L71.146 13.5793L74.822 19.2246V12.488H72.822ZM71.926 11.112L70.1437 10.2046L69.6193 11.2347L70.25 12.2033L71.926 11.112ZM74.454 8.456L75.4165 10.2092L75.4281 10.2027L74.454 8.456ZM82.358 8.744L81.2211 10.3895L81.2382 10.4012L81.2555 10.4127L82.358 8.744ZM84.726 12.392L84.1998 14.3215L87.4374 15.2045L86.6735 11.9367L84.726 12.392ZM82.966 11.912L81.1277 11.1242L80.2223 13.2368L82.4398 13.8415L82.966 11.912ZM85.718 8.712L84.6682 7.00966L84.6618 7.01361L84.6554 7.01762L85.718 8.712ZM90.102 7.528V9.528C91.191 9.528 92.0655 9.74729 92.7806 10.1267L93.718 8.36L94.6554 6.5933C93.2798 5.86337 91.7436 5.528 90.102 5.528V7.528ZM93.718 8.36L92.8236 10.1489C93.4893 10.4817 94.0284 11.0005 94.4456 11.7902L96.214 10.856L97.9824 9.92176C97.205 8.45019 96.08 7.30494 94.6124 6.57114L93.718 8.36ZM96.214 10.856L94.4673 11.8301C94.8689 12.5503 95.142 13.6131 95.142 15.144H97.142H99.142C99.142 13.1763 98.7964 11.3803 97.9607 9.88186L96.214 10.856ZM97.142 15.144H95.142V25H97.142H99.142V15.144H97.142ZM97.142 25V23H92.15V25V27H97.142V25ZM92.15 25H94.15V15.912H92.15H90.15V25H92.15ZM92.15 15.912H94.15C94.15 14.3085 93.8268 12.712 92.7942 11.5264L91.286 12.84L89.7778 14.1536C89.8972 14.2907 90.15 14.7421 90.15 15.912H92.15ZM91.286 12.84L92.7942 11.5264C91.7651 10.3449 90.3559 9.848 88.854 9.848V11.848V13.848C89.4428 13.848 89.6549 14.0125 89.7778 14.1536L91.286 12.84ZM88.854 11.848V9.848C87.8008 9.848 86.7926 10.1 85.8824 10.6394L86.902 12.36L87.9216 14.0806C88.1634 13.9373 88.4565 13.848 88.854 13.848V11.848ZM86.902 12.36L85.9307 10.6117C84.9537 11.1545 84.2356 11.9732 83.7577 12.9609L85.558 13.832L87.3583 14.7031C87.5204 14.3681 87.6983 14.2055 87.8733 14.1083L86.902 12.36ZM85.558 13.832L83.7577 12.9609C83.2651 13.979 83.078 15.1458 83.078 16.36H85.078H87.078C87.078 15.5261 87.2109 15.0077 87.3583 14.7031L85.558 13.832ZM85.078 16.36H83.078V25H85.078H87.078V16.36H85.078ZM85.078 25V23H80.086V25V27H85.078V25ZM80.086 25H82.086V15.912H80.086H78.086V25H80.086ZM80.086 15.912H82.086C82.086 14.3085 81.7627 12.712 80.7302 11.5264L79.222 12.84L77.7138 14.1536C77.8333 14.2907 78.086 14.7421 78.086 15.912H80.086ZM79.222 12.84L80.7544 11.5548C79.7396 10.3449 78.3215 9.848 76.822 9.848V11.848V13.848C77.4131 13.848 77.5951 14.0125 77.6896 14.1252L79.222 12.84ZM76.822 11.848V9.848C75.7688 9.848 74.7606 10.1 73.8504 10.6394L74.87 12.36L75.8896 14.0806C76.1314 13.9373 76.4245 13.848 76.822 13.848V11.848ZM74.87 12.36L73.8987 10.6117C72.9217 11.1545 72.2036 11.9732 71.7257 12.9609L73.526 13.832L75.3263 14.7031C75.4884 14.3681 75.6663 14.2055 75.8413 14.1083L74.87 12.36ZM73.526 13.832L71.7257 12.9609C71.2331 13.979 71.046 15.1458 71.046 16.36H73.046H75.046C75.046 15.5261 75.1789 15.0077 75.3263 14.7031L73.526 13.832ZM73.046 16.36H71.046V25H73.046H75.046V16.36H73.046ZM73.046 25V23H68.054V25V27H73.046V25ZM68.054 25H70.054V7.784H68.054H66.054V25H68.054ZM68.054 7.784V9.784H72.822V7.784V5.784H68.054V7.784ZM72.822 7.784H70.822V12.488H72.822H74.822V7.784H72.822ZM72.822 12.488L74.498 11.3967L73.602 10.0207L71.926 11.112L70.25 12.2033L71.146 13.5793L72.822 12.488ZM71.926 11.112L73.7083 12.0194C74.1352 11.1809 74.7024 10.6012 75.4165 10.2092L74.454 8.456L73.4915 6.70284C72.0296 7.50544 70.9115 8.6964 70.1437 10.2046L71.926 11.112ZM74.454 8.456L75.4281 10.2027C76.2083 9.76764 77.1252 9.528 78.23 9.528V7.528V5.528C76.5188 5.528 74.9184 5.90703 73.4799 6.70927L74.454 8.456ZM78.23 7.528V9.528C79.4478 9.528 80.4174 9.83416 81.2211 10.3895L82.358 8.744L83.4949 7.09854C81.9519 6.0325 80.1695 5.528 78.23 5.528V7.528ZM82.358 8.744L81.2555 10.4127C81.9491 10.871 82.4887 11.6076 82.7785 12.8473L84.726 12.392L86.6735 11.9367C86.1953 9.89111 85.1562 8.19569 83.4605 7.07533L82.358 8.744ZM84.726 12.392L85.2522 10.4625L83.4922 9.98247L82.966 11.912L82.4398 13.8415L84.1998 14.3215L84.726 12.392ZM82.966 11.912L84.8043 12.6998C85.2172 11.7363 85.8608 10.9832 86.7806 10.4064L85.718 8.712L84.6554 7.01762C83.0579 8.01946 81.8668 9.39973 81.1277 11.1242L82.966 11.912ZM85.718 8.712L86.7678 10.4143C87.7033 9.83741 88.7946 9.528 90.102 9.528V7.528V5.528C88.124 5.528 86.2927 6.00792 84.6682 7.00966L85.718 8.712ZM105.102 24.104L104.176 25.8772L104.187 25.8826L105.102 24.104ZM101.677 20.968L99.9649 22.001L99.9686 22.0071L99.9723 22.0131L101.677 20.968ZM101.646 11.816L99.9329 10.783L99.9281 10.7911L101.646 11.816ZM104.941 8.68L105.89 10.4409L105.9 10.4353L105.91 10.4296L104.941 8.68ZM114.189 8.616L113.24 10.376L113.256 10.385L113.273 10.3936L114.189 8.616ZM117.422 11.688L115.697 12.7009L115.704 12.7129L117.422 11.688ZM118.574 17.128L120.565 17.3091L120.566 17.3016L120.567 17.2941L118.574 17.128ZM118.509 17.8V19.8H120.319L120.5 17.999L118.509 17.8ZM104.525 17.8H102.525V19.8H104.525V17.8ZM104.525 14.888V12.888H102.525V14.888H104.525ZM115.885 14.888L116.706 16.7118L115.885 12.888V14.888ZM113.965 15.752H111.965V18.8452L114.786 17.5758L113.965 15.752ZM113.422 13.416L111.668 14.3777V14.3777L113.422 13.416ZM111.918 11.88L110.889 13.595L110.91 13.6078L110.931 13.62L111.918 11.88ZM107.406 11.88L108.392 13.62L108.401 13.6149L108.41 13.6096L107.406 11.88ZM105.901 13.448L107.655 14.4097L107.662 14.398L107.668 14.3863L105.901 13.448ZM105.965 19.08L104.22 20.0556L104.237 20.0864L104.255 20.1166L105.965 19.08ZM107.726 20.712L106.811 22.4906L106.841 22.5061L106.871 22.5205L107.726 20.712ZM112.813 20.84L112.08 18.9792L112.071 18.9831L112.061 18.9871L112.813 20.84ZM114.733 19.592L116.204 18.2361L114.818 16.7338L113.346 18.1514L114.733 19.592ZM117.39 22.472L118.89 23.7941L120.082 22.4414L118.86 21.1161L117.39 22.472ZM114.413 24.552L115.145 26.4135L115.159 26.4079L115.173 26.402L114.413 24.552ZM110.285 25.256V23.256C108.587 23.256 107.182 22.9252 106.016 22.3254L105.102 24.104L104.187 25.8826C106.007 26.8188 108.058 27.256 110.285 27.256V25.256ZM105.102 24.104L106.027 22.3308C104.852 21.7182 103.991 20.9149 103.383 19.9229L101.677 20.968L99.9723 22.0131C100.986 23.6664 102.407 24.9538 104.176 25.8772L105.102 24.104ZM101.677 20.968L103.39 19.935C102.784 18.9298 102.462 17.7675 102.462 16.392H100.462H98.4615C98.4615 18.4298 98.9499 20.3182 99.9649 22.001L101.677 20.968ZM100.462 16.392H102.462C102.462 14.9798 102.78 13.8172 103.363 12.8409L101.646 11.816L99.9281 10.7911C98.932 12.4602 98.4615 14.3482 98.4615 16.392H100.462ZM101.646 11.816L103.358 12.849C103.983 11.8128 104.817 11.0184 105.89 10.4409L104.941 8.68L103.993 6.91906C102.292 7.83494 100.929 9.13119 99.9329 10.783L101.646 11.816ZM104.941 8.68L105.91 10.4296C106.971 9.84239 108.199 9.528 109.646 9.528V7.528V5.528C107.593 5.528 105.686 5.98161 103.973 6.93042L104.941 8.68ZM109.646 7.528V9.528C111.034 9.528 112.217 9.82405 113.24 10.376L114.189 8.616L115.139 6.85596C113.474 5.95729 111.627 5.528 109.646 5.528V7.528ZM114.189 8.616L113.273 10.3936C114.297 10.9216 115.096 11.678 115.697 12.7008L117.422 11.688L119.146 10.6752C118.168 9.01001 116.813 7.71843 115.106 6.83839L114.189 8.616ZM117.422 11.688L115.704 12.7129C116.274 13.6677 116.605 14.8867 116.605 16.456H118.605H120.605C120.605 14.3133 120.148 12.3537 119.139 10.6631L117.422 11.688ZM118.605 16.456H116.605C116.605 16.5777 116.599 16.744 116.58 16.9619L118.574 17.128L120.567 17.2941C120.591 17 120.605 16.7183 120.605 16.456H118.605ZM118.574 17.128L116.582 16.9469C116.561 17.1762 116.54 17.3942 116.519 17.601L118.509 17.8L120.5 17.999C120.522 17.7791 120.543 17.5491 120.565 17.3091L118.574 17.128ZM118.509 17.8V15.8H104.525V17.8V19.8H118.509V17.8ZM104.525 17.8H106.525V14.888H104.525H102.525V17.8H104.525ZM104.525 14.888V16.888H115.885V14.888V12.888H104.525V14.888ZM115.885 14.888L115.065 13.0642L113.145 13.9282L113.965 15.752L114.786 17.5758L116.706 16.7118L115.885 14.888ZM113.965 15.752H115.965C115.965 14.583 115.727 13.4612 115.175 12.4543L113.422 13.416L111.668 14.3777C111.841 14.6934 111.965 15.129 111.965 15.752H113.965ZM113.422 13.416L115.175 12.4543C114.639 11.476 113.875 10.6906 112.904 10.14L111.918 11.88L110.931 13.62C111.24 13.7947 111.479 14.0333 111.668 14.3777L113.422 13.416ZM111.918 11.88L112.946 10.165C111.953 9.56903 110.84 9.304 109.677 9.304V11.304V13.304C110.221 13.304 110.602 13.423 110.889 13.595L111.918 11.88ZM109.677 11.304V9.304C108.513 9.304 107.402 9.56941 106.401 10.1504L107.406 11.88L108.41 13.6096C108.732 13.4226 109.135 13.304 109.677 13.304V11.304ZM107.406 11.88L106.419 10.14C105.431 10.7 104.667 11.5089 104.135 12.5097L105.901 13.448L107.668 14.3863C107.861 14.0217 108.1 13.7854 108.392 13.62L107.406 11.88ZM105.901 13.448L104.148 12.4863C103.592 13.4998 103.357 14.6346 103.357 15.816H105.357H107.357C107.357 15.1627 107.486 14.7189 107.655 14.4097L105.901 13.448ZM105.357 15.816H103.357V16.584H105.357H107.357V15.816H105.357ZM105.357 16.584H103.357C103.357 17.8192 103.627 18.9951 104.22 20.0556L105.965 19.08L107.711 18.1044C107.493 17.7142 107.357 17.2261 107.357 16.584H105.357ZM105.965 19.08L104.255 20.1166C104.877 21.1433 105.742 21.9411 106.811 22.4906L107.726 20.712L108.64 18.9334C108.215 18.7149 107.907 18.4247 107.676 18.0434L105.965 19.08ZM107.726 20.712L106.871 22.5205C107.956 23.0325 109.154 23.256 110.413 23.256V21.256V19.256C109.625 19.256 109.031 19.1168 108.58 18.9035L107.726 20.712ZM110.413 21.256V23.256C111.528 23.256 112.594 23.088 113.566 22.6929L112.813 20.84L112.061 18.9871C111.668 19.1467 111.134 19.256 110.413 19.256V21.256ZM112.813 20.84L113.547 22.7008C114.508 22.3222 115.367 21.7584 116.121 21.0326L114.733 19.592L113.346 18.1514C112.948 18.535 112.527 18.8031 112.08 18.9792L112.813 20.84ZM114.733 19.592L113.263 20.9479L115.919 23.8279L117.39 22.472L118.86 21.1161L116.204 18.2361L114.733 19.592ZM117.39 22.472L115.889 21.1499C115.319 21.7969 114.588 22.3183 113.654 22.702L114.413 24.552L115.173 26.402C116.629 25.8043 117.882 24.9391 118.89 23.7941L117.39 22.472ZM114.413 24.552L113.682 22.6905C112.764 23.0511 111.644 23.256 110.285 23.256V25.256V27.256C112.041 27.256 113.673 26.9916 115.145 26.4135L114.413 24.552Z" fill="#1E1E1E" mask="url(#path-1-outside-1_1_348)"/>
</svg>
